<svg width="36" height="36" viewBox="0 0 36 36" fill="none" xmlns="http://www.w3.org/2000/svg">
<path d="M25.5659 22.1126C25.2435 21.8238 24.7481 21.852 24.4608 22.1736C22.8283 23.9979 20.4742 25.0434 18.0004 25.0434C15.5274 25.0434 13.1725 23.9979 11.54 22.1736C11.2512 21.852 10.7574 21.8238 10.4349 22.1126C10.1125 22.4006 10.0859 22.8952 10.3739 23.2176C12.303 25.3729 15.0828 26.6087 18.0004 26.6087C20.9188 26.6087 23.6986 25.3721 25.6269 23.2176C25.9149 22.8952 25.8875 22.4006 25.5659 22.1126Z" fill="#DBBABA"/>
<path d="M18.0005 0C8.07544 0 0.000488281 8.07496 0.000488281 18C0.000488281 27.925 8.07544 36 18.0005 36C27.9255 36 36.0005 27.925 36.0005 18C36.0005 8.07496 27.9255 0 18.0005 0ZM18.0005 34.4348C8.93788 34.4348 1.56571 27.0626 1.56571 18C1.56571 8.93739 8.93788 1.56522 18.0005 1.56522C27.0631 1.56522 34.4353 8.93739 34.4353 18C34.4353 27.0626 27.0631 34.4348 18.0005 34.4348Z" fill="#DBBABA"/>
<path d="M24.2612 12.5217C22.1035 12.5217 20.3481 14.2771 20.3481 16.4348C20.3481 16.8668 20.6988 17.2174 21.1308 17.2174C21.5628 17.2174 21.9134 16.8668 21.9134 16.4348C21.9134 15.1403 22.9668 14.0869 24.2612 14.0869C25.5556 14.0869 26.609 15.1403 26.609 16.4348C26.609 16.8668 26.9596 17.2174 27.3916 17.2174C27.8236 17.2174 28.1742 16.8668 28.1742 16.4348C28.1742 14.2771 26.4188 12.5217 24.2612 12.5217Z" fill="#DBBABA"/>
<path d="M14.0875 16.4348C14.0875 16.8668 14.4381 17.2174 14.8701 17.2174C15.3021 17.2174 15.6527 16.8668 15.6527 16.4348C15.6527 14.2771 13.8974 12.5217 11.7397 12.5217C9.58205 12.5217 7.82666 14.2771 7.82666 16.4348C7.82666 16.8668 8.17727 17.2174 8.60927 17.2174C9.04127 17.2174 9.39188 16.8668 9.39188 16.4348C9.39188 15.1403 10.4453 14.0869 11.7397 14.0869C13.0341 14.0869 14.0875 15.1403 14.0875 16.4348Z" fill="#DBBABA"/>
</svg>
