<?xml version="1.0" encoding="utf-8"?>
<!-- Generator: Adobe Illustrator 24.0.1, SVG Export Plug-In . SVG Version: 6.00 Build 0)  -->
<svg version="1.1" id="Camada_1" xmlns="http://www.w3.org/2000/svg" xmlns:xlink="http://www.w3.org/1999/xlink" x="0px" y="0px"
	 viewBox="0 0 529.2 588.9" style="enable-background:new 0 0 529.2 588.9;" xml:space="preserve">
<style type="text/css">
	.st0{fill:#FFFDFB;}
	.st1{fill:#F4A5A7;}
	.st2{fill:#F29190;}
	.st3{fill:#E94D3C;}
	.st4{fill:#E83D30;}
	.st5{fill:#ED6E65;}
	.st6{fill:#EB5D4F;}
	.st7{fill:#FDC511;}
	.st8{fill:#F8AC20;}
	.st9{fill:#1D1D1B;}
	.st10{font-family:'Norwester-Regular';}
	.st11{font-size:90px;}
	.st12{letter-spacing:9;}
</style>
<title>PsicoLogar</title>
<circle class="st0" cx="272.6" cy="249.5" r="244.5"/>
<path class="st1" d="M344.4,375.9c-1-7.5-0.8-15.1,0.5-22.5l0.2-1.3l-1.2-0.6c-33.5-15.4-69-13.2-92.9-8.6l-1.5,0.3v1.5
	c0.1,3.7,0.4,7.3,0.9,10.7c5.7,44.2,37.1,80.7,79.9,93.1c14.8,4.2,27.2,14.1,34.5,27.6c22.1-9,42.8-21.2,61.3-36.3
	C386.1,444.4,349.7,415.9,344.4,375.9z"/>
<path class="st2" d="M324,433.4c0-13.1,10.6-23.8,23.8-23.8c4.6,0,9.2,1.3,13,3.9c-13.9-16.7-19.7-38.7-15.8-60.1l0.2-1.3l-1.2-0.6
	c-33.5-15.4-69-13.2-92.9-8.6l-1.5,0.3v1.5c0.1,3.7,0.4,7.3,0.9,10.7c5.6,43.6,36.4,79.9,78.5,92.6C325.8,443.8,324,438.7,324,433.4
	z"/>
<path class="st3" d="M492.6,356.4c-1.7-12.7-6.6-24.7-14.2-35c-3.8,3.5-8,6.5-12.6,9c-2.8,1.5-4.5,4.5-4.5,7.6
	c0.7,22.5-12.3,43.3-39.9,50c-17.8,4.3-34.5-2.7-47.8-14.9c-9-8.2-19.2-15-30.3-20.1c-7.4,41.1,20,80.4,61.1,87.8
	c6.4,1.1,12.9,1.5,19.4,0.9C452.8,418.8,476.4,389.6,492.6,356.4z"/>
<path class="st4" d="M404.5,388.9c-11.6-1.6-22.4-7.9-31-15.7c-9-8.2-19.2-15.1-30.3-20.2c-7.4,41.1,20,80.4,61.1,87.8
	c6.4,1.1,12.9,1.5,19.4,0.9c8-6.3,15.5-13,22.6-20.2C428.9,416,414.1,404.4,404.5,388.9z"/>
<path class="st5" d="M474.7,226.8c-2.7-2-3.6-5.6-2.1-8.6c14.3-29.8,2.9-65.7-26-81.7c-4.5-2.5-7.6-6.9-8.3-12.1
	c-4.2-30.8-30.5-53.9-61.6-54.1c-3.6,0-6.8-2.2-8.1-5.5c-12.7-32.1-49.1-47.8-81.1-35.1c-7.1,2.8-13.6,6.9-19.3,12.1
	c-5.4,5-13.5,5.5-19.6,1.4c-27.8-18.6-65.2-12.1-85.1,14.8c-3.5,4.7-9,7.5-14.9,7.3c-29.7-0.9-55.9,19.1-62.8,48
	c-0.5,1.9-0.8,3.9-1.1,5.8c-0.7,4.5-4,8.2-8.4,9.3c-19.1,4.9-33.9,20-38.4,39.2l-0.1,0.3c-1,4.6-3.6,8.7-7.4,11.6
	c-13,9.7-21.7,24-24.4,40c-5.6,34.1,17.4,66.2,51.5,71.9c0.1,0,0.2,0,0.3,0c4.3,0.7,7.9,3.5,9.5,7.5c10.9,26.8,41.4,39.9,68.4,29.4
	c3-1.1,6.3,0.1,8,2.8c16.8,26.6,50.7,36.6,79.2,23.4c0.9-0.4,88.6-35.5,149.6,20.1c13.8,12.6,31.1,19.7,49.4,15.3
	c28.2-6.8,42-28.3,41.3-51.7c-0.1-2.6,1.3-4.9,3.5-6.1c30.4-16.3,41.9-54.2,25.6-84.6C487.8,239.3,481.9,232.4,474.7,226.8
	L474.7,226.8z"/>
<path class="st6" d="M142.8,294.7c1.8-4.3,2.1-9.2,0.6-13.7l-0.1-0.3c-5.7-18.9-0.4-39.4,13.7-53.1c3.3-3.2,4.3-8,2.6-12.3
	c-0.7-1.8-1.4-3.7-2-5.6c-8.4-28.5,4.3-58.9,30.4-72.9c5.2-2.8,8.6-7.9,9.3-13.8c3.8-33.2,33-57.5,66.3-55.3c7.3,0.5,14.1-4,16.3-11
	c3.8-12.2,11.2-22.9,21.3-30.7c-12.4,1.8-23.9,7.3-33.2,15.8c-5.4,5-13.5,5.6-19.6,1.4c-27.7-18.6-65.2-12.1-85.1,14.8
	c-3.5,4.7-9,7.5-14.9,7.3c-29.7-0.9-55.9,19.1-62.8,48c-0.5,1.9-0.8,3.9-1.1,5.8c-0.7,4.5-4,8.2-8.4,9.3
	c-19.1,4.9-33.9,20-38.4,39.2l-0.1,0.3c-1,4.6-3.6,8.7-7.4,11.6c-13,9.7-21.7,24-24.4,40c-5.6,34.1,17.4,66.2,51.5,71.9
	c0.1,0,0.2,0,0.3,0c4.3,0.7,7.9,3.5,9.5,7.5c10.9,26.8,41.4,39.9,68.4,29.4c0.9-0.3,1.8-0.5,2.7-0.4
	C136.8,316.6,138.3,305.1,142.8,294.7z"/>
<path class="st3" d="M294.2,97.7c3.1-3.6,2.6-9-1-12.1c-5.2-4.4-11.3-7.5-17.9-9.1c0.4-11.8-2.4-23.5-8.1-33.8
	c-5.4,4.2-13,4.5-18.7,0.6c-1.2-0.8-2.4-1.5-3.6-2.3c8.9,9.3,13.7,21.8,13.3,34.6c-14.2,2.1-26.5,10.9-33,23.7
	c-2.3,4.2-0.7,9.4,3.4,11.7c4.2,2.3,9.4,0.7,11.7-3.4c0.1-0.1,0.1-0.3,0.2-0.4c6.7-13.3,23-18.6,36.3-11.9c1.9,1,3.7,2.1,5.3,3.5
	C285.6,101.7,291.1,101.3,294.2,97.7C294.1,97.7,294.2,97.7,294.2,97.7z"/>
<path class="st3" d="M390.8,306.3c-11.4,9.7-28.5,8.2-38.1-3.2c-1.3-1.6-2.5-3.3-3.4-5.2c-2.2-4.2-7.3-5.9-11.5-3.8
	c-4.2,2.2-5.9,7.3-3.8,11.5l0,0c6.4,12.4,18.2,21.1,32,23.5c0.1,11.6-4.5,22.8-12.7,31c5,2.9,9.7,6.3,14.2,9.9
	c10.2-11.4,15.7-26.2,15.6-41.4c7-1.6,13.4-4.8,18.9-9.4c3.6-3.1,4.1-8.5,1-12.1C399.8,303.6,394.4,303.2,390.8,306.3L390.8,306.3
	L390.8,306.3z"/>
<path class="st3" d="M210.5,218.9c-19.2-3.7-38.2,7.1-44.9,25.5c-1.5,0-3.1-0.4-4.4-1c-5.5-2.5-10.2-9.5-13.6-20.1
	c-2.9-8.9-7.2-15.8-12.8-20.6c7.4-22.4-1.5-44.3-1.9-45.3c-1.8-4.4-6.8-6.4-11.2-4.6c-4.4,1.8-6.4,6.8-4.6,11.2l0,0
	c0.1,0.2,6.3,15.9,2,31.5c-13.2-2-25,4.3-25.6,4.6c-4.1,2.4-5.5,7.6-3.1,11.7c2.3,4,7.3,5.4,11.4,3.3c0.1,0,9.9-5,18-1.8
	c5.1,2,9,7.1,11.6,15.2c5.1,15.6,12.8,25.8,22.8,30.4c2.9,1.4,6.1,2.2,9.3,2.5c0.7,8.3,4,16.2,9.4,22.6c3.1,3.6,8.5,4.1,12.1,1
	s4.1-8.5,1-12.1c-8.1-9.6-7-24,2.6-32.1c5.2-4.4,12.2-6.3,19-5c4.7,0.8,9.1-2.3,10-7C218.1,224.2,215.1,219.8,210.5,218.9
	L210.5,218.9z"/>
<path class="st3" d="M297.5,180.2c0-17.5-14.2-31.8-31.8-31.8c-17.5,0-31.8,14.2-31.8,31.8c0,11.5,6.2,22.2,16.3,27.8
	c1.7,1,2.6,2.9,2.3,4.8l-6.6,37.4c-0.4,2.4,1.2,4.6,3.5,5c0.2,0,0.5,0.1,0.8,0.1h31.5c2.2,0,4.1-1.8,4.1-4.1c0-0.2,0-0.5-0.1-0.7
	l-6.7-37.7c-0.4-1.9,0.5-3.8,2.2-4.8C291.3,202.3,297.5,191.7,297.5,180.2z"/>
<path class="st4" d="M281.2,207.9c15.3-8.5,20.9-27.8,12.4-43.2c-6-10.7-17.6-17.1-29.8-16.3c-2,0.1-4,0.5-6,1
	c17,4.5,27.1,21.8,22.7,38.8c-2.2,8.4-7.7,15.5-15.3,19.7c-1.7,1-2.6,2.9-2.2,4.8l6.7,37.7c0.4,2.2-1.1,4.3-3.3,4.7
	c-0.2,0-0.5,0.1-0.7,0.1h16.1c2.2,0,4.1-1.8,4.1-4.1c0-0.2,0-0.5-0.1-0.7l-6.7-37.7C278.6,210.8,279.5,208.9,281.2,207.9z"/>
<path class="st7" d="M506.9,40.6c-19.3-30-59.3-38.7-89.3-19.4c-22.7,14.6-33.9,41.7-28.2,68.1c0.6,2.6-0.6,5.3-2.9,6.6l-112.2,64.8
	c-7.3,4.2-10.3,13.6-6.2,21c2.8,5.1,8.3,8.2,14.2,8c1.3,0,2.6,0.7,3.2,1.8L299,215c4.3,7.4,13.8,9.9,21.1,5.6
	c7.4-4.3,9.9-13.8,5.6-21.1l0,0l-12.9-22.3c-0.7-1.3-0.3-3,1-3.7l0,0l22-12.7c1.3-0.8,3-0.3,3.8,1l7.5,13c1.4,2.5,4.6,3.4,7.1,1.9
	l0,0l17.8-10.2c2.5-1.4,3.3-4.6,1.9-7.1l0,0l-7.4-12.9c-0.8-1.4-0.3-3.1,1-3.9l35.1-20.3c1.9-1.1,4.2-0.8,5.8,0.7
	c26.1,24.3,67,22.9,91.4-3.2C520,98,522.9,65.5,506.9,40.6L506.9,40.6z M473.1,81.5c-7.4,4.3-16.8,1.7-21.1-5.7s-1.7-16.8,5.7-21.1
	c7.4-4.3,16.8-1.7,21.1,5.7C483,67.8,480.4,77.3,473.1,81.5L473.1,81.5L473.1,81.5z"/>
<path class="st8" d="M476.1,116.8c-38.4,0-69.6-31.2-69.6-69.6c0-6.7,1-13.4,2.9-19.8c-17.3,15.5-25,39.1-20.1,61.9
	c0.6,2.6-0.6,5.3-2.9,6.6l-112.2,64.8c-7.3,4.2-10.3,13.6-6.2,21c2.8,5.1,8.3,8.2,14.2,8c1.3,0,2.6,0.7,3.2,1.8
	c2.5,4.4,8.6,14.8,13.6,23.5c4.3,7.4,13.8,9.9,21.1,5.6c7.4-4.3,9.9-13.8,5.6-21.1l0,0l-12.9-22.3c-0.7-1.3-0.3-3,1-3.7l0,0l22-12.7
	c1.3-0.8,3-0.3,3.8,1l7.5,13c1.4,2.5,4.6,3.4,7.1,1.9l0,0l17.8-10.2c2.5-1.4,3.3-4.6,1.9-7.1l0,0l-7.4-12.9c-0.8-1.4-0.3-3.1,1-3.9
	l35.1-20.3c1.9-1.1,4.2-0.8,5.8,0.7c26.1,24.3,67,22.9,91.4-3.3c3-3.2,5.6-6.6,7.9-10.4C497.9,114.3,487.1,116.9,476.1,116.8z"/>
<text transform="matrix(1 0 0 1 6.77 574.93)" class="st9 st10 st11 st12"></text>
</svg>
